<?xml version="1.0" encoding="UTF-8" standalone="no"?>
<!-- Created with Inkscape (http://www.inkscape.org/) -->

<svg
   version="1.1"
   id="svg1"
   width="904.05225"
   height="316.48447"
   viewBox="0 0 904.05225 316.48447"
   xmlns="http://www.w3.org/2000/svg"
   xmlns:svg="http://www.w3.org/2000/svg">
  <defs
     id="defs1" />
  <g
     id="g1"
     transform="translate(-251.97386,-225.75777)">
    <path
       style="fill:#000000"
       d="m 442.83359,540.85895 c -10.15676,-3.21217 -16.52897,-9.38649 -22.58772,-21.88628 -4.50989,-9.30434 -4.61958,-12.11958 -0.58895,-15.116 3.35475,-2.49396 13.40798,-2.85202 20.59502,-0.73353 l 4.41835,1.30238 -3.91835,2.16613 c -5.23864,2.896 -8.84161,9.89302 -7.84092,15.22718 0.93305,4.97354 6.30757,10.7883 11.37476,12.30647 5.01669,1.50304 17.04781,6.85997 17.04781,7.59065 0,1.06105 -14.56922,0.38614 -18.5,-0.857 z m -143.68523,-5.82401 c -0.43951,-4.55301 -3.18829,-4.83385 -5.82701,-0.59534 l -2.06575,3.31817 0.289,-4 c 0.24238,-3.35493 -0.0335,-4.04602 -1.71101,-4.28539 -1.28412,-0.18324 -2.64892,0.71161 -3.81291,2.5 l -1.81291,2.78539 0.61067,-3.76306 c 0.79119,-4.87541 -1.46591,-6.0107 -5.19586,-2.61345 -2.62671,2.39241 -2.66028,2.26428 -0.68524,-2.61506 1.04597,-2.58404 -2.3743,-2.81098 -6.32837,-0.41989 -3.29776,1.99422 -3.57323,2.03815 -2.17748,0.34725 3.33348,-4.03839 3.38218,-4.73725 0.29415,-4.22093 -1.59063,0.26596 -5.25455,1.44485 -8.14205,2.61976 -6.21791,2.53003 -6.89768,1.61516 -1.21238,-1.6317 2.21222,-1.26339 3.77005,-2.7051 3.46184,-3.20379 -0.3082,-0.49869 -3.25674,-1.21177 -6.55229,-1.58462 -8.72493,-0.98711 -8.30991,-2.41451 0.70202,-2.41451 h 7.76723 l -4.41642,-4.5 c -2.42903,-2.475 -4.09233,-4.5 -3.69622,-4.5 0.3961,0 3.87019,2.09461 7.72019,4.65468 3.85,2.56008 7.30025,4.35443 7.66724,3.98745 0.36698,-0.36699 -0.0962,-2.34909 -1.02938,-4.40469 l -1.69662,-3.73744 3.26739,3.75004 c 1.94394,2.23109 4.16874,3.75003 5.49265,3.75 1.97545,-4e-5 2.11577,-0.28798 1.25,-2.56514 -1.67658,-4.40974 -1.05357,-5.06241 1.60832,-1.6849 1.40876,1.7875 3.48628,3.25 4.61672,3.25 1.8473,0 1.99343,-0.43016 1.44375,-4.25 l -0.61157,-4.25 2.00765,3.75 c 1.28004,2.39091 2.72385,3.75 3.98377,3.75 1.64172,0 1.99385,-0.71917 2.08096,-4.25 l 0.10486,-4.25 1.2304,4 c 1.72247,5.59965 4.74555,5.95237 6.88036,0.80278 l 1.57647,-3.80278 0.0515,4.25 c 0.0429,3.54048 0.37955,4.25 2.01635,4.25 1.08065,0 2.44648,-0.9 3.03518,-2 1.57589,-2.94457 3.1484,-2.52052 1.98644,0.53568 -1.25752,3.30752 1.02411,4.34265 4.52128,2.05122 2.6832,-1.7581 3.46752,-0.64116 0.99228,1.4131 -2.36504,1.96281 -1.76952,3 1.72251,3 h 3.2225 l -2.36689,1.65784 c -2.25996,1.58293 -2.28397,1.71847 -0.53138,3 1.58398,1.15823 1.61186,1.34216 0.20341,1.34216 -2.59567,0 -3.10494,1.94775 -1.09811,4.19982 l 1.84796,2.07379 -3.20034,-1.63681 c -4.41034,-2.25565 -4.61338,-2.14417 -3.84864,2.1132 0.65709,3.65805 0.63391,3.69483 -0.94541,1.5 -0.89046,-1.2375 -2.4935,-2.25 -3.56231,-2.25 -1.56489,0 -1.95867,0.73022 -2.02225,3.75 -0.0761,3.61687 -0.11359,3.65542 -1.05466,1.08601 -1.68911,-4.61184 -5.86636,-4.8511 -5.86636,-0.33601 0,3.70244 -1.83214,3.93483 -2.18523,0.27717 z m 164.18523,2.51398 c -6.14215,-2.25603 -8.24145,-3.44095 -7.42705,-4.1921 0.50988,-0.47028 6.10205,-1.14299 12.42705,-1.49491 l 11.5,-0.63986 -3.73531,3.51786 c -2.96838,2.79556 -4.50829,3.50165 -7.5,3.43891 -2.07058,-0.0434 -4.43969,-0.32687 -5.26469,-0.6299 z m 65,-3.20794 c 3.14237,-2.60337 27.02208,-14.46241 41.32359,-20.52194 14.67972,-6.21978 35.71433,-13.21951 43.92641,-14.61749 3.7125,-0.632 6.75,-1.35932 6.75,-1.61626 0,-0.25694 -1.29069,-2.34825 -2.8682,-4.64734 -2.6826,-3.90969 -10.1318,-17.99316 -10.1318,-19.15522 0,-1.25181 2.56107,-0.33439 5.65561,2.02593 1.83941,1.40299 3.34439,2.13334 3.34439,1.62299 0,-0.51035 -1.35,-5.31359 -3,-10.67388 -1.65,-5.36029 -3,-10.36563 -3,-11.12299 0,-5.48027 6.95774,5.60451 10.12015,16.12299 2.32589,7.73615 5.22866,13.97951 7.01205,15.0817 2.07572,1.28287 0.0387,-19.93741 -2.76619,-28.81652 -1.58877,-5.02932 -2.35815,-9.51553 -2.15179,-12.54681 l 0.32123,-4.71837 2.86299,6.25 c 1.57464,3.4375 3.19946,6.25 3.6107,6.25 1.27417,0 6.89614,-23.23722 6.95573,-28.75 0.0503,-4.65191 1.56276,-4.0088 3.04801,1.29602 1.58643,5.66616 0.73771,16.6116 -1.94569,25.09236 -4.12029,13.02196 -4.72732,38.21057 -1.06427,44.16144 1.05116,1.70767 0.99513,0.40856 -0.51967,-12.04982 -0.28422,-2.3375 -0.0758,-9.62204 0.46317,-16.18787 0.93713,-11.41647 1.14139,-12.1723 4.67658,-17.30524 6.07511,-8.8208 10.9125,-11.23809 7.01784,-3.50689 -6.8837,13.66466 -10.4478,29.78726 -8.65984,39.17373 0.56822,2.98305 1.29174,5.68234 1.60782,5.99843 1.23035,1.23034 3.20137,-3.32828 6.85021,-15.84333 2.08975,-7.16756 4.49527,-13.60499 5.3456,-14.30538 1.36726,-1.12617 1.47537,-0.753 0.93482,3.22655 -0.33618,2.475 -0.92416,8.64932 -1.30661,13.72072 -0.39118,5.18704 -1.28974,9.99907 -2.05404,11 -3.10005,4.05976 -6.42896,9.54246 -6.03379,9.93762 0.23312,0.23312 1.78083,-0.71796 3.43935,-2.11352 3.41742,-2.87557 5.65249,-7.84038 6.66879,-14.81356 0.40197,-2.75802 1.68624,-5.92036 3.04586,-7.5 2.73079,-3.17268 4.37049,-2.39113 2.6956,1.28485 -0.63264,1.38851 -1.10646,5.44419 -1.05293,9.01262 0.11465,7.64245 -1.04378,9.93016 -8.39117,16.57115 l -5.08916,4.59988 8.47064,4.61735 c 17.86022,9.73561 29.43298,10.10668 52.88801,1.6958 49.3507,-17.69697 52.54127,-17.85867 80.93157,-4.10148 9.1126,4.41576 18.7158,8.54804 21.3404,9.18286 8.2864,2.00425 19.899,0.70277 31.728,-3.55594 35.3749,-12.73566 41.7554,-14.65244 50.6843,-15.22602 12.1408,-0.77991 18.3703,1.01057 38.1537,10.96602 l 16.338,8.22165 12.162,-0.0427 c 11.399,-0.04 12.7894,-0.26905 22.162,-3.65024 5.5,-1.98413 15.74606,-5.67286 22.76904,-8.19719 26.4109,-9.49303 39.1441,-9.75393 56.2309,-1.15215 10.1451,5.10718 22.621,14.17748 33,23.99185 l 7,6.61917 -5.5,-0.65367 c -7.6956,-0.91463 -16.4036,-3.74759 -30.7429,-10.00158 -24.5302,-10.69865 -30.6629,-10.97719 -54.7571,-2.48693 -32.44084,11.43149 -32.38634,11.41857 -48.49994,11.5001 -16.4775,0.0834 -20.0756,-0.7976 -38.6386,-9.46048 -15.7109,-7.33189 -19.2416,-8.26907 -29.2218,-7.75659 -7.5651,0.38847 -11.6693,1.4742 -33.0022,8.73051 -22.663,7.70873 -25.0728,8.32312 -34.5409,8.80634 -15.5034,0.79122 -28.4099,-2.34678 -43.5965,-10.5998 -9.0706,-4.92933 -17.0536,-7.14664 -25.73031,-7.14664 -7.05108,0 -9.74501,0.67176 -28.28155,7.05232 -26.24023,9.03228 -34.15381,10.93187 -45.57815,10.94067 -12.22868,0.009 -20.77598,-2.34475 -38.40996,-10.57922 -13.73401,-6.41332 -14.94903,-6.79106 -23,-7.15046 -6.84951,-0.30576 -10.15049,0.0977 -17,2.07763 -4.675,1.35139 -15.475,4.48716 -24,6.96839 -18.00624,5.24076 -36.59394,9.32266 -46.52468,10.21693 l -6.97532,0.62814 z m 95.44959,-43.89926 c -0.91492,-1.54883 -2.56876,-3.91133 -3.67521,-5.25 l -2.01172,-2.43395 1.61867,2.75 c 2.84398,4.83171 4.83603,7.75 5.29022,7.75 0.24284,0 -0.30705,-1.26722 -1.22196,-2.81605 z m -181.69961,38.73594 c -2.31549,-1.34865 -4.74998,-6.17659 -4.74998,-9.41989 0,-6.76771 5.19772,-11.1392 12.13775,-10.20835 6.75799,0.90644 10.58823,8.12726 7.83581,14.77217 -2.08018,5.022 -10.38853,7.67223 -15.22358,4.85607 z m 19.79841,-3.07236 c 2.92033,-9.20113 -2.1393,-17.84681 -14.54839,-24.85968 l -5.5,-3.10827 11,0.39136 c 8.70033,0.30954 11.85732,0.83312 15.10084,2.50443 8.48509,4.3722 18.33471,16.70163 16.91524,21.17396 -0.32042,1.00957 -1.80512,2.33258 -3.29933,2.94004 -3.56684,1.45005 -12.59975,3.11063 -16.92063,3.11063 -3.05683,0 -3.35641,-0.23468 -2.74773,-2.15247 z m 209.64901,-19.34431 c -2.91643,-0.81903 -6.20441,-1.97179 -7.30664,-2.56168 -1.96899,-1.05378 -1.95647,-1.1537 0.71607,-5.71405 2.10517,-3.5922 2.8269,-6.34678 3.19246,-12.1845 0.25979,-4.14865 1.08623,-8.43062 1.83653,-9.5155 2.52758,-3.65469 1.6844,-7.53541 -2.48367,-11.4311 -2.39564,-2.23909 -4.09845,-4.89255 -4.51187,-7.03077 -0.78897,-4.08055 -3.23734,-7.06562 -5.79527,-7.06562 -2.27065,0 -2.28049,0.23872 0.22361,-5.42222 3.29068,-7.43912 1.45015,-12.11071 -5.31667,-13.49468 -3.03747,-0.62123 -3.28379,-0.99578 -4.02026,-6.11316 -1.46435,-10.17522 -8.78497,-17.13427 -14.59436,-13.87354 -3.56548,2.00125 -4.97117,5.25315 -5.68588,13.1536 l -0.61064,6.75 h -3.86464 c -5.35557,0 -8.92972,3.2348 -9.66967,8.75156 -0.53628,3.99828 -0.75905,4.24844 -3.78318,4.24844 -2.0315,0 -3.91399,-0.79115 -5.11833,-2.15106 -1.04775,-1.18308 -4.69911,-3.42923 -8.11414,-4.99143 -7.36891,-3.37091 -7.05623,-2.58964 -10.76139,-26.88906 -1.3811,-9.05765 -2.72897,-17.70595 -2.99527,-19.21845 l -0.48419,-2.75 h 200.51757 200.5175 l 18.10654,-16.34686 18.1067,-16.34687 67.9496,-0.72102 c 37.3722,-0.39656 68.1694,-0.50116 68.4381,-0.23244 0.2688,0.26871 -7.8087,11.88676 -17.95,25.81788 -35.4704,48.72619 -51.1931,72.45062 -64.9583,98.01748 l -8.3911,15.58519 -5.5688,-2.34838 c -3.0629,-1.29161 -9.4793,-3.11672 -14.2588,-4.0558 -12.108,-2.37902 -18.512,-1.18853 -49.05478,9.11921 -13.75226,4.64121 -28.00426,8.94468 -31.67106,9.56326 -9.4884,1.6007 -15.788,0.0196 -30.4876,-7.65174 -6.7048,-3.4991 -15.7129,-7.54531 -20.018,-8.99158 -7.1817,-2.41262 -8.8177,-2.59067 -19.8276,-2.15796 -13.0816,0.51412 -17.9678,1.79328 -48.4029,12.67143 -25.3355,9.05541 -30.021,8.80846 -54.0201,-2.84723 -9.1173,-4.42804 -19.0233,-8.56155 -22.0132,-9.18557 -3.1183,-0.65082 -9.7273,-0.91992 -15.49998,-0.63112 -10.82891,0.54175 -16.08612,1.98051 -48.1301,13.17189 -18.17369,6.34718 -25.71919,7.46534 -34.23629,5.07345 z m -302.94997,-3.75322 c -2.09976,-2.63137 -4.24743,-7.75296 -4.24743,-10.12891 0,-3.12461 -2.44041,-5.62109 -5.49483,-5.62109 -1.29359,0 -4.41145,1.57203 -6.92857,3.49339 -2.51713,1.92137 -4.5766,3.28341 -4.5766,3.02676 0,-0.25666 0.98487,-2.49381 2.18861,-4.97146 1.20373,-2.47765 1.87687,-4.81654 1.49587,-5.19755 -0.65832,-0.65831 -7.8969,0.67225 -12.18448,2.23969 -1.1,0.40214 0.1375,-1.17953 2.75,-3.51482 2.6125,-2.33529 4.75,-4.79141 4.75,-5.45805 0,-0.66663 -1.79174,-2.96165 -3.98164,-5.10004 -2.18991,-2.13838 -3.83191,-4.0377 -3.6489,-4.22071 0.18301,-0.18302 2.31225,0.56536 4.73164,1.66306 2.4194,1.09769 5.44715,2.00569 6.72836,2.01777 2.10118,0.0198 2.26391,-0.29652 1.66065,-3.22804 -1.83824,-8.93281 -1.88429,-8.58276 0.69174,-5.25872 4.054,5.23117 5.74771,6.50872 8.6289,6.50872 2.5667,0 2.96566,-0.51716 4.59496,-5.95637 2.57407,-8.59322 4.18059,-9.3908 3.75042,-1.86196 l -0.34386,6.01847 3.34386,-0.72747 c 6.05631,-1.31758 7.74189,-2.34974 10.91735,-6.68522 l 3.14028,-4.28745 -0.71568,4.37374 c -0.80094,4.89472 0.1202,6.08507 4.72887,6.11095 1.81604,0.0102 3.27412,-0.81979 4.36501,-2.48469 2.25733,-3.44513 3.47558,-3.1392 2.09234,0.52544 -1.6344,4.33002 0.0242,6.5398 4.69533,6.25574 3.26229,-0.19839 3.49127,-0.0473 2.45155,1.61753 -1.78341,2.8557 -0.34295,5.10129 3.27229,5.10129 h 3.16625 l -2.63486,2.07258 c -3.1728,2.49573 -3.27346,3.61876 -0.58118,6.48456 l 2.05368,2.18604 -2.54124,-0.48579 c -3.3853,-0.64714 -4.45365,2.08216 -1.9374,4.94942 1.83646,2.09264 1.83406,2.11747 -0.12872,1.33416 -6.72409,-2.68346 -9.09674,-1.41842 -7.63482,4.0707 l 1.03558,3.88833 -2.77321,-3.25 c -1.73124,-2.0289 -3.68515,-3.24425 -5.20038,-3.23469 -4.15726,0.0262 -5.28621,1.38479 -4.61056,5.5483 0.64906,3.99968 0.54618,3.95073 -3.59367,-1.71003 -3.08086,-4.21272 -11.46678,-7.85882 -12.89638,-5.6072 -1.0859,1.71031 -1.02429,5.10336 0.14869,8.18852 1.06651,2.80513 0.81861,3.25306 -0.72782,1.3151 z m 25.63373,-12.85842 c 4.9656,-1.73101 7.55978,-8.33065 5.0892,-12.94697 -1.56842,-2.93061 -6.64771,-5.17439 -10.03116,-4.43126 -5.53602,1.21592 -8.66914,8.3857 -5.91406,13.53363 0.89888,1.67957 5.39423,4.80093 7.07564,4.91298 0.33042,0.022 2.0316,-0.45875 3.78038,-1.06838 z m -5.21449,-6.55825 c -1.37518,-1.37517 -0.59483,-4.22135 1.32438,-4.83049 2.70307,-0.85792 4.00895,0.13761 4.00895,3.05618 0,1.89055 -0.52615,2.44098 -2.33333,2.44098 -1.28334,0 -2.63334,-0.3 -3,-0.66667 z m 116.2191,10.54947 c -7.01772,-7.2005 -8.88577,-9.72325 -8.88577,-12 0,-1.58554 0.21958,-2.8828 0.48796,-2.8828 0.26839,0 3.2501,3.4875 6.62605,7.75 8.45,10.66906 9.45265,10.37697 1.9552,-0.56959 -4.0423,-5.90192 -6.10693,-9.86064 -5.89514,-11.30339 0.61809,-4.21068 2.80471,-3.17326 5.34177,2.53437 1.36629,3.07373 3.61499,8.13278 4.99711,11.24233 3.91734,8.81333 3.95421,5.6413 0.0555,-4.77608 -4.60379,-12.30149 -4.83263,-14.37764 -1.58474,-14.37764 2.38633,0 2.54885,0.41895 4.14515,10.68544 0.91379,5.87699 1.93582,11.27699 2.27119,12 0.62296,1.34303 -0.0184,-10.56493 -1.06825,-19.83301 -0.52321,-4.61896 -0.35282,-5.27081 1.65922,-6.34762 1.78555,-0.9556 2.51334,-0.92554 3.57286,0.14757 1.10747,1.12168 1.08943,3.27569 -0.10761,12.84762 -0.791,6.325 -1.42856,12.175 -1.41681,13 0.0503,3.52928 1.77688,-1.77735 2.92833,-9 1.97919,-12.41469 2.85857,-15 5.10214,-15 3.50027,0 3.30144,2.90152 -0.93374,13.6261 -2.2749,5.76065 -4.10775,11.01391 -4.07298,11.67391 0.0348,0.65999 2.39726,-3.52501 5.25,-9.30001 5.1485,-10.42248 7.83183,-13.00421 8.51399,-8.1916 0.22305,1.57359 -1.46064,4.68378 -5.28928,9.77058 -5.30156,7.04377 -7.33984,10.42102 -6.2894,10.42102 0.25438,0 3.29254,-3.6 6.75148,-8 3.45894,-4.4 6.67396,-8 7.14449,-8 1.28471,0 0.96801,5.2697 -0.42629,7.09309 -2.92889,3.83024 -18.03406,15.90691 -19.89593,15.90691 -1.26793,0 -5.44254,-3.48015 -10.9365,-9.1172 z m 1.57311,6.05067 c -1.17263,-1.89735 0.53762,-2.36554 2.27922,-0.62395 1.55894,1.55895 1.56168,1.69048 0.0352,1.69048 -0.9104,0 -1.95188,-0.47994 -2.31442,-1.06653 z m 17.80302,-0.62395 c 0.92977,-0.92976 1.97126,-1.4097 2.31443,-1.06653 0.98418,0.98419 -0.52669,2.75701 -2.34963,2.75701 -1.52648,0 -1.52374,-0.13153 0.0352,-1.69048 z m 43.1986,-14.78272 c -5.39821,-5.72378 -5.50938,-12.4363 -0.3265,-19.71498 2.41022,-3.38484 1.97136,-4.47376 -1.13337,-2.81216 -4.54062,2.43007 -7.21986,12.44591 -4.99829,18.68524 l 1.00234,2.8151 -2.51043,-3 c -2.39895,-2.86678 -4.47677,-8.22189 -4.48867,-11.5685 -0.0135,-3.78615 3.25651,-12.00056 5.90638,-14.83726 3.73296,-3.99614 8.6087,-4.2099 12.9378,-0.56721 3.96421,3.33567 4.60769,6.91891 2.62001,14.58963 -1.54193,5.9505 -1.53424,6.64935 0.12693,11.53642 1.46603,4.31299 1.54523,5.47098 0.46335,6.77457 -2.19154,2.64064 -6.03394,1.87979 -9.59955,-1.90085 z m -18.81465,-10.53289 c -9.43643,-8.28529 -8.84919,-21.7381 1.22787,-28.12878 5.36567,-3.40281 7.02404,-3.54068 9.93772,-0.82617 2.82062,2.6278 2.76409,3.23074 -0.67277,7.17624 -5.16464,5.929 -6.58374,9.69222 -6.61228,17.5348 -0.0145,3.9875 -0.12323,7.25 -0.24159,7.25 -0.11837,0 -1.75589,-1.35274 -3.63895,-3.00609 z M 454.6465,452.20469 c -1.75289,-0.53433 -4.00289,-1.97847 -5,-3.20921 -0.9971,-1.23074 -3.05816,-2.8804 -4.58014,-3.66591 -5.60694,-2.89381 -10.67714,-12.4387 -8.63466,-16.25513 1.44837,-2.70629 6.88981,-4.81667 12.41943,-4.81667 7.588,0 12.63129,3.69057 16.39843,12 2.08294,4.59449 2.72483,12.44096 1.21284,14.82583 -1.09422,1.72591 -7.75765,2.35813 -11.8159,1.12109 z m 17.35376,-3.61359 c -0.36667,-0.36666 -0.66667,-1.85999 -0.66667,-3.3185 0,-5.10194 -3.03351,-12.79566 -7.01848,-17.80057 l -4.01864,-5.0472 3.04029,-0.66776 c 4.92677,-1.0821 10.74134,0.39905 13.87726,3.53497 2.91409,2.91409 5.11957,9.36975 5.11957,14.98547 0,5.12201 -7.49493,11.15199 -10.33333,8.31359 z m 69.33333,-2.79437 c 0,-3.4867 1.79041,-5.93029 6.81477,-9.30096 2.14748,-1.44067 2.4707,-1.39697 4.47234,0.60467 l 2.15757,2.15756 -2.05689,1.44071 c -1.13129,0.79238 -3.97392,3.04233 -6.31696,4.99988 -2.34303,1.95755 -4.44248,3.55918 -4.66544,3.55918 -0.22297,0 -0.40539,-1.55747 -0.40539,-3.46104 z m -55.33333,-2.20563 c -0.36667,-0.36666 -0.67655,-2.95416 -0.68863,-5.75 -0.0125,-2.89946 -0.87939,-6.97316 -2.01777,-9.48223 -1.0977,-2.41939 -1.79499,-4.59971 -1.54955,-4.84516 0.24545,-0.24544 1.79536,-0.14995 3.44424,0.2122 7.1947,1.58022 10.27519,16.25111 4.1056,19.55297 -2.16734,1.15992 -2.42205,1.18407 -3.29389,0.31222 z m 10,-5 c -0.36667,-0.36666 -0.66667,-2.14549 -0.66667,-3.95294 0,-1.80746 -0.5231,-4.43436 -1.16244,-5.83756 -1.42188,-3.12069 -0.68231,-4.06529 2.04154,-2.60753 2.81169,1.50477 4.73158,8.05511 3.19982,10.91723 -1.17736,2.19992 -2.23441,2.65865 -3.41225,1.4808 z m 44.95032,-2.63417 c -1.16873,-4.35868 -0.14886,-21.73253 1.2723,-21.67402 0.59023,0.0243 6.24771,16.48529 6.3372,18.43867 0.0243,0.5301 -1.54524,1.96972 -3.48783,3.19916 l -3.53199,2.23535 z m -38.01506,-0.82724 c -0.23587,-0.75456 -0.69123,-2.88281 -1.0119,-4.72945 -0.56303,-3.24231 -0.48879,-3.3355 2.16346,-2.71557 7.61138,1.77908 9.92246,3.93729 6.9012,6.44472 -2.28899,1.89969 -7.56667,2.55528 -8.05276,1.0003 z m 120.39807,-95.37192 v -41.5 h 50.5 50.5 v 41.5 41.5 h -50.5 -50.5 z m 32.39301,14.91821 c 0.87565,-2.28189 0.71814,-8.69467 -0.25108,-10.22281 -0.56715,-0.8942 -2.68573,-1.20877 -6.73469,-1 l -5.90724,0.3046 -0.31959,3.90468 c -0.17577,2.14757 -0.0547,4.96007 0.26906,6.25 0.53395,2.12744 1.13433,2.34532 6.46259,2.34532 4.4338,0 6.02278,-0.38782 6.48095,-1.58179 z m 26.60699,-4.96593 v -6.54771 l -6.25,0.29771 -6.25,0.29772 -0.30981,4.87294 c -0.46044,7.24206 -0.11828,7.62706 6.77843,7.62706 h 6.03138 z m 26.39301,4.96593 c 0.87565,-2.28189 0.71814,-8.69467 -0.25108,-10.22281 -0.56715,-0.8942 -2.68573,-1.20877 -6.73469,-1 l -5.90724,0.3046 -0.30981,4.87294 c -0.45933,7.22458 -0.10728,7.62706 6.67144,7.62706 4.47978,0 6.0724,-0.38571 6.53138,-1.58179 z m -26.89301,-32.41821 v -6.5 l -6.25,-0.29772 -6.25,-0.29771 v 6.46438 c 0,7.35658 0.25536,7.60597 7.5,7.32498 l 5,-0.19393 z m 26.3,5.8 c 1.4459,-1.4459 1.61141,-11.4277 0.20391,-12.29758 -2.09753,-1.29635 -11.16179,-0.86458 -12.07297,0.57508 -1.31734,2.0814 -1.12812,10.32532 0.26906,11.7225 1.55581,1.55581 10.04419,1.55581 11.6,0 z m -52.8,-6.3 v -6.5 h -6 -6 v 6.5 6.5 h 6 6 z m 108.99997,42 v -17.5 h 51 51 v 17.5 17.5 h -51 -51 z m 113,0 v -17.5 h 50.5 50.5 v 17.5 17.5 h -50.5 -50.5 z m -86.393,-28.08179 c -0.3338,-0.86998 -0.607,-7.16998 -0.607,-14 v -12.41821 h 38 38 v 14 14 h -37.393 c -33.175,0 -37.4615,-0.17843 -38,-1.58179 z m 85.393,-12.41821 v -14 h 38 38 v 14 14 h -38 -38 z m -233.99997,-40 v -7 h 33.5 33.5 v 7 7 h -33.5 -33.5 z m 17.01531,-19.25 c 0.008,-2.3375 0.38009,-4.8248 0.82592,-5.52734 0.54087,-0.8523 4.68682,-1.48508 12.45946,-1.90162 l 11.64885,-0.62428 0.27523,-15.09838 c 0.23027,-12.63179 0.52028,-15.09838 1.77523,-15.09838 1.25569,0 1.54496,2.4838 1.77605,15.25 l 0.27604,15.25 7.72396,0.0997 c 11.97971,0.1546 12.66745,0.50786 13.02621,6.69096 l 0.30226,5.20934 h -25.05226 -25.05226 z"
       id="path1" />
  </g>
</svg>
