<?xml version="1.0" encoding="UTF-8" standalone="no"?>
<!-- Created with Inkscape (http://www.inkscape.org/) -->

<svg
   version="1.1"
   id="svg1"
   width="1408"
   height="768"
   viewBox="0 0 1408 768"
   xmlns="http://www.w3.org/2000/svg"
   xmlns:svg="http://www.w3.org/2000/svg">
  <defs
     id="defs1" />
  <g
     id="g1">
    <path
       style="fill:#000000"
       d="m 670.08344,677.14958 -7.47108,-0.64761 -9.22694,-30.39803 c -5.07482,-16.71891 -9.58783,-30.71024 -10.02892,-31.09185 -0.44108,-0.38161 -7.00887,-2.81525 -14.59508,-5.40809 -13.87379,-4.74185 -32.96153,-12.88162 -43.15826,-18.4044 l -5.49249,-2.97486 -28.10314,15.9802 -28.10314,15.98021 -7.17493,-6.83521 c -19.72164,-18.78784 -51.67493,-50.12464 -51.67493,-50.67795 0,-0.34506 7.0104,-13.54397 15.57866,-29.33091 l 15.57866,-28.70354 -7.98827,-16.56779 c -7.43646,-15.42334 -13.21467,-29.60417 -16.24842,-39.87677 -0.6999,-2.36994 -2.01145,-4.70443 -2.91454,-5.18775 -0.9031,-0.48332 -14.84275,-4.50061 -30.97701,-8.92731 -16.13426,-4.42671 -29.60368,-8.31674 -29.93205,-8.64452 -0.32837,-0.32778 -0.74067,-19.23612 -0.91624,-42.01852 -0.25915,-33.62889 -0.071,-41.50337 1,-41.85205 0.72557,-0.23621 14.59421,-3.90083 30.81921,-8.14359 16.225,-4.24275 30.00641,-8.10587 30.62536,-8.58469 0.61895,-0.47882 1.69652,-2.99953 2.39461,-5.60158 2.35262,-8.76911 10.1618,-27.63986 17.17702,-41.50793 l 6.96911,-13.77692 -15.55498,-29.22308 -15.55498,-29.22307 28.71546,-28.75 c 15.79351,-15.8125 29.14253,-28.75 29.6645,-28.75 0.52197,0 13.22926,6.975 28.23842,15.5 15.00916,8.525 27.75393,15.5 28.32171,15.5 0.56778,0 6.7634,-2.86822 13.76805,-6.37382 13.92264,-6.96783 31.66062,-14.21818 42.95621,-17.55823 6.87348,-2.03245 7.26982,-2.31368 8.24675,-5.85151 0.56444,-2.04404 4.75312,-16.09144 9.30817,-31.21644 l 8.28192,-27.499997 h 41.4525 41.4525 l 9.41003,31.155677 9.41002,31.15568 11.10881,3.68223 c 13.3837,4.43628 26.41844,9.90303 40.84215,17.12914 5.90331,2.9575 11.28551,5.37727 11.96051,5.37727 0.6749,0 12.9788,-6.73397 27.342,-14.96438 14.3632,-8.23041 26.9129,-15.2706 27.8882,-15.64487 1.3825,-0.53051 8.1271,5.67046 30.6025,28.13581 l 28.8292,28.81629 -3.0515,6.07858 c -1.6783,3.34321 -8.6556,16.53827 -15.5051,29.32235 l -12.4536,23.24379 6.5264,12.83476 c 7.0571,13.87846 14.4891,31.38824 17.0535,40.17767 0.8826,3.025 2.0266,6.16707 2.5423,6.98237 0.5721,0.90468 12.9395,4.63132 31.7349,9.56261 l 30.79732,8.08024 0.2609,42.18739 c 0.1434,23.20306 -0.014,42.18739 -0.3491,42.18739 -1.00892,0 -58.77072,15.94915 -60.67792,16.75435 -1.146,0.48383 -3.1934,4.92829 -5.8308,12.65743 -4.893,14.33931 -11.1974,28.76699 -17.3547,39.71587 -2.5016,4.44843 -4.5484,8.43314 -4.5484,8.85492 0,0.42178 6.975,13.71185 15.5,29.53347 8.525,15.82163 15.498,29.04051 15.4955,29.37528 -0.01,0.69223 -53.0359,52.56604 -56.6227,55.38743 -2.3386,1.83954 -2.3492,1.83465 -29.7205,-13.71928 -15.0596,-8.55771 -27.8996,-15.55947 -28.5333,-15.55947 -0.6338,0 -6.2073,2.53666 -12.38561,5.63702 -13.54133,6.79519 -29.12627,13.14904 -41.26732,16.82434 -4.93131,1.49279 -9.2801,3.01217 -9.66398,3.3764 -0.38389,0.36423 -4.79967,14.16224 -9.81285,30.66224 -5.01319,16.5 -9.43549,30.32638 -9.82733,30.72529 -0.94257,0.95957 -65.55321,1.75272 -75.13295,0.92232 z M 738.354,553.09649 c 32.29583,-6.53661 62.46099,-22.33755 86.08878,-45.09452 23.1867,-22.33211 37.9962,-46.38323 47.0372,-76.38996 5.3033,-17.6012 6.0772,-23.75529 6.0501,-48.11004 -0.021,-19.11318 -0.3239,-23.3778 -2.3066,-32.5 -5.9945,-27.58036 -16.7919,-51.1319 -32.9559,-71.88347 -51.38586,-65.97029 -141.9264,-86.4995 -216.40603,-49.06802 -18.41563,9.25521 -31.82084,19.14604 -46.90809,34.61042 -24.69016,25.30734 -40.1034,54.97213 -46.67965,89.84107 -2.68274,14.22455 -2.37566,46.53024 0.58226,61.2554 3.0749,15.30754 7.17191,27.45876 14.11291,41.85712 25.02906,51.92014 73.15847,87.52196 131.01401,96.91243 13.31504,2.16115 46.51217,1.37458 60.37101,-1.43043 z m -42.38158,-31.69345 c -0.82725,-0.99678 -1.53241,-5.61011 -1.87244,-12.25 -0.53492,-10.44546 -0.59371,-10.65689 -3.04545,-10.95246 -12.56386,-1.51467 -30.70038,-9.05246 -39.83314,-16.55522 -15.08689,-12.39417 -24.56123,-32.89903 -21.15056,-45.77509 2.86731,-10.82476 14.23746,-15.82842 24.58514,-10.81919 4.93108,2.38709 6.65175,4.72868 9.98799,13.59225 3.58962,9.53675 7.04663,15.95004 10.89206,20.20647 3.53328,3.91092 10.98149,8.419 15.76851,9.544 l 2.75,0.64627 v -36.01905 c 0,-25.02885 -0.32812,-36.01905 -1.07536,-36.01905 -0.59145,0 -5.75283,-1.8288 -11.46972,-4.06399 -24.26748,-9.48812 -39.76091,-25.11621 -44.5488,-44.93601 -1.70357,-7.05205 -1.71196,-24.89502 -0.015,-32 5.16114,-21.60976 21.39446,-38.55303 43.4205,-45.31949 4.50364,-1.38352 9.42593,-2.7862 10.93843,-3.11706 2.74489,-0.60044 2.75,-0.61783 2.75,-9.36 -5e-5,-12.00026 0.90523,-13.20345 9.93421,-13.20345 4.76802,0 7.18647,0.44055 8.03568,1.46378 0.6733,0.81128 1.45821,5.88046 1.7608,11.37183 l 0.54596,9.90805 5.61165,1.23332 c 22.0513,4.84641 41.84269,22.47171 48.14797,42.87836 2.51087,8.12628 2.4788,12.44911 -0.13237,17.84307 -5.34986,11.05134 -23.15102,13.48511 -29.35695,4.01367 -0.81446,-1.24303 -2.6282,-6.21932 -4.03051,-11.05842 -3.88328,-13.40038 -7.11729,-18.41196 -15.489,-24.00254 -5.14521,-3.43593 -5.02749,-4.21578 -5.02749,33.30653 v 34.95766 l 7.25,2.08092 c 31.73542,9.10879 44.45277,18.98408 52.49338,40.76222 3.3081,8.96003 4.18702,26.27904 1.88316,37.10718 -5.59135,26.27927 -25.93888,44.86744 -55.92943,51.09345 l -5.4738,1.13636 -0.38214,10.32327 c -0.24803,6.70037 -0.8566,10.89496 -1.7341,11.95228 -1.90479,2.29513 -14.29025,2.31814 -16.18918,0.0301 z m 26.50815,-54.36937 c 6.06944,-2.60166 14.1678,-10.29666 17.26145,-16.4017 3.31978,-6.55126 4.17075,-17.17938 1.97605,-24.67969 -2.28722,-7.8165 -6.36634,-12.17687 -15.81615,-16.90665 -12.99493,-6.50417 -11.84739,-9.21202 -11.84739,27.95634 0,36.31424 -0.66888,33.93024 8.42604,30.0317 z M 694.17618,328.48498 c -0.2081,-17.59066 -0.56377,-32.18868 -0.79039,-32.44006 -0.67066,-0.74395 -9.19427,4.19422 -13.37533,7.74902 -2.12956,1.81059 -5.24727,6.08568 -6.92823,9.5002 -5.81728,11.81657 -4.94121,25.37758 2.25405,34.89139 3.66174,4.84168 15.17639,13.0692 17.62395,12.59279 1.42886,-0.27813 1.55504,-3.62926 1.21595,-32.29334 z"
       id="path1" />
  </g>
</svg>
