<?xml version="1.0" encoding="UTF-8" standalone="no"?>
<!-- Created with Inkscape (http://www.inkscape.org/) -->

<svg
   version="1.1"
   id="svg1"
   width="1081.6472"
   height="441.61804"
   viewBox="0 0 1081.6472 441.61804"
   xmlns="http://www.w3.org/2000/svg"
   xmlns:svg="http://www.w3.org/2000/svg">
  <defs
     id="defs1" />
  <g
     id="g1"
     transform="translate(-163.17638,-163.19098)">
    <path
       style="fill:#000000"
       d="m 764.59933,604.39283 c -10.84358,-0.79938 -16.3425,-2.2253 -27.5,-7.13099 -20.02673,-8.80528 -20.55165,-8.97404 -27.93818,-8.98214 -3.884,-0.004 -11.99196,0.9613 -18.0177,2.14569 -40.67294,7.99448 -91.09702,11.36631 -187.04412,12.50754 l -43,0.51145 21.34244,-2.42057 c 67.64047,-7.6715 158.49335,-21.8871 204.36914,-31.97729 31.28918,-6.88193 38.75579,-6.37807 59.05139,3.98491 23.56351,12.03157 31.01865,12.20501 68.86973,1.60221 27.09053,-7.58858 44.87773,-9.73992 58.06803,-7.02326 2.9146,0.60028 11.8243,4.16122 19.7993,7.91319 20.2622,9.5327 20.1189,9.49693 38,9.48534 17.0562,-0.0111 17.1184,-0.0221 45.2534,-8.06545 29.49694,-8.43268 43.31424,-10.36465 60.50224,-8.45958 18.5955,2.06105 31.205,6.38597 45.4207,15.57881 7.8391,5.06933 16.1029,11.51043 15.518,12.09534 -0.1961,0.19609 -4.1451,-0.78873 -8.7754,-2.18848 -22.0707,-6.67193 -46.0064,-10.12989 -62.3744,-9.01116 -13.907,0.95052 -23.1759,2.87945 -43.99174,9.155 -26.5193,7.99501 -34.4451,9.40557 -52.8495,9.40557 -19.9579,0 -28.5115,-1.63722 -45.7033,-8.74802 -12.2774,-5.07807 -14.3309,-5.62453 -22.6737,-6.03382 -11.5563,-0.56693 -17.6791,0.51253 -41.58671,7.33179 -29.06262,8.28964 -37.59809,9.58758 -54.73962,8.32392 z M 1096.7662,582.0012 c -12.2331,-12.73028 -26.8456,-20.92245 -45.8598,-25.71031 -7.3948,-1.86204 -11.5329,-2.21535 -25.807,-2.2034 -18.9275,0.0159 -25.15999,1.05578 -50.74114,8.46646 -22.7963,6.60393 -29.6401,7.99654 -42.2589,8.59912 -15.6375,0.74672 -22.6733,-0.77315 -39.1942,-8.46675 -14.9568,-6.96518 -20.782,-8.35907 -34.6297,-8.28644 -12.4152,0.0651 -21.0039,1.64393 -44.19194,8.1235 -38.53041,10.76677 -45.41465,10.73132 -66.57807,-0.3429 -5.72337,-2.99488 -12.82562,-6.00245 -15.78279,-6.6835 -8.14705,-1.87631 -27.39358,-0.69606 -39.51235,2.42299 -5.43896,1.39985 -10.27646,2.30573 -10.75,2.01307 -0.47354,-0.29266 -0.86098,-1.58701 -0.86098,-2.87632 0,-5.13408 -7.20713,-23.53114 -25.87058,-66.03776 l -7.02515,-16 222.38926,-0.5 222.38924,-0.5 16.0878,-18.25 16.0878,-18.25 h 60.506 c 59.6087,0 60.4906,0.0288 59.466,1.94339 -1.9134,3.57519 -68.1623,103.36827 -78.1358,117.6987 -5.4133,7.77815 -11.9605,16.00649 -14.5492,18.28519 -9.1029,8.01267 -22.0298,12.54289 -38.8453,13.61333 l -9,0.57292 z M 634.09933,545.31904 c -6.14286,-2.13367 -57.58777,-22.79411 -60.47328,-24.28626 -3.76441,-1.94665 -4.81855,-5.65638 -2.57869,-9.07485 0.91768,-1.40055 2.27135,-2.77779 3.00816,-3.06053 2.71314,-1.04113 66.08046,24.2674 68.27502,27.26864 1.82969,2.50225 1.5913,3.81619 -1.3201,7.27619 -2.85614,3.39433 -2.67992,3.34648 -6.91111,1.87681 z m -130.5,-44.30247 c -119.80304,-24.22742 -294.37111,-60.65101 -295.85559,-61.7302 -3.6947,-2.68599 -16.43768,-17.29233 -21.05176,-24.13011 -10.21437,-15.13703 -18.17515,-34.28126 -21.74721,-52.29803 -2.38477,-12.02834 -2.35174,-38.32557 0.0638,-50.80299 9.03586,-46.67429 40.54732,-90.04153 85.61098,-117.82103 18.76097,-11.56521 49.25887,-23.3777 71.47976,-27.68565 21.95394,-4.2562 54.50722,-4.49479 75.13838,-0.55071 27.67939,5.2915 54.55698,16.62028 74.36162,31.3431 10.09534,7.5049 26.79517,23.82802 34.68566,33.90323 7.16916,9.15416 17.73961,25.98786 19.28319,30.70897 1.0962,3.35275 8.80078,75.97128 17.45987,164.56581 8.65415,88.54399 8.54734,82.04146 1.34603,81.93945 -2.35109,-0.0333 -20.69973,-3.38214 -40.77473,-7.44184 z m 2.49345,-52.72901 C 494.6513,427.78983 474.29227,391.12767 460.85048,366.8161 l -24.4396,-44.20285 -4.52844,-0.67909 c -7.90782,-1.18585 -33.11813,0.27082 -40.79478,2.35716 -18.72292,5.08844 -42.9623,17.6521 -51.41431,26.64884 l -2.25104,2.39614 67.83851,48.39761 c 95.21079,67.92566 120.16622,85.29067 121.15338,84.30351 0.2647,-0.26469 -8.87994,-17.25213 -20.32142,-37.74986 z m -28.06245,35.11976 c -0.37787,-0.61141 -3.21693,-2.24314 -6.30902,-3.62607 -19.44707,-8.69766 -155.28819,-67.53263 -167.62198,-72.59977 l -15,-6.16252 h -13.5 c -11.53938,0 -14.4793,0.33827 -20.24304,2.32921 -7.57116,2.61527 -19.6453,10.17888 -24.40755,15.28963 -3.40741,3.65677 -8.34941,10.70153 -8.34941,11.90199 0,1.07652 1.50717,1.40863 82,18.06881 40.425,8.36706 95.55,19.81434 122.5,25.43841 26.95,5.62408 49.58906,10.28102 50.30902,10.34877 0.71996,0.0677 0.99985,-0.37706 0.62198,-0.98846 z m 49.61048,-90.44936 c -11.15638,-111.49002 -12.09398,-120.64447 -12.61705,-123.189 -0.42861,-2.085 -0.99282,-2.24892 -7.69348,-2.23522 -13.49818,0.0276 -24.83832,4.05843 -37.34247,13.27333 -9.44195,6.95822 -18.89929,20.5895 -22.3485,32.21189 l -1.18709,4 36.41026,65.51978 c 49.08313,88.32446 51.84853,93.14518 52.43066,91.39879 0.19077,-0.57232 -3.25277,-37.01313 -7.65233,-80.97957 z m -47.04148,76.52386 c -6.13341,-4.88874 -149.70666,-106.91704 -151.27192,-107.49925 -3.06394,-1.13966 -23.49584,32.16863 -21.16351,34.50096 0.52633,0.52633 36.72712,16.42124 80.4462,35.32201 43.71908,18.90078 82.18923,35.53882 85.48923,36.97342 7.34312,3.19226 9.98107,3.47751 6.5,0.70286 z m -258.73842,-56.53986 5.76158,-6.11699 -8.42246,-16.52138 c -8.90089,-17.45985 -13.08197,-28.91657 -16.75282,-45.90502 -3.05542,-14.14026 -3.3524,-48.67725 -0.5321,-61.87961 2.80597,-13.13524 7.0188,-24.72293 13.8814,-38.18171 3.45459,-6.77506 6.47314,-12.76731 6.70788,-13.31611 1.02124,-2.38747 -10.56462,11.6384 -14.86682,17.99782 -34.74981,51.36635 -35.8033,111.11762 -2.91364,165.25348 2.25432,3.71059 4.83601,7.58136 5.73709,8.60171 1.58071,1.78997 1.70863,1.75551 3.63831,-0.98001 1.1,-1.55936 4.59271,-5.58784 7.76158,-8.95218 z m 76.61172,-23.4894 c 0.98949,-2.83844 0.25759,-4.68783 -9.84561,-24.87827 -22.33672,-44.63812 -34.60416,-79.81063 -39.47611,-113.18367 -1.65239,-11.31892 -1.95892,-30.16345 -0.62304,-38.30266 0.69808,-4.25321 0.62467,-4.67847 -0.53405,-3.09382 -0.73886,1.01045 -2.00573,4.1294 -2.81527,6.931 -7.11437,24.62087 -3.50501,61.93181 9.62356,99.4813 7.48365,21.40426 20.95701,51.16329 30.92122,68.29664 3.86938,6.65335 4.11476,6.83203 10.52817,7.66605 0.6337,0.0824 1.63321,-1.23005 2.22113,-2.91657 z m 138.96682,-80.48204 c 1.44986,-3.18211 0.55845,-5.03679 -7.94472,-16.52983 -41.89143,-56.62126 -87.28184,-91.20409 -130.5797,-99.48834 -8.11234,-1.55215 -23.3157,-1.94757 -23.3157,-0.60641 0,0.45484 3.65295,1.38619 8.11767,2.06966 20.02932,3.06614 47.33429,16.81255 71.38233,35.9367 20.73104,16.48632 52.25361,51.03241 68.35986,74.91666 4.07647,6.04508 4.35572,6.25 8.51689,6.25 3.64042,0 4.48084,-0.39202 5.46337,-2.54844 z m 43.10751,-46.42858 c 3.73058,-1.63736 10.892,-3.77486 15.91427,-4.75 5.02227,-0.97514 9.13291,-2.17663 9.13475,-2.66999 0.0102,-2.72076 -21.16043,-25.14289 -31.99665,-33.88819 -46.31607,-37.37906 -108.47212,-52.77358 -163.75,-40.55682 -2.8875,0.63815 -5.25,1.53867 -5.25,2.00115 0,0.46248 5.15195,0.84087 11.44878,0.84087 43.62661,0 87.54781,16.31994 122.62479,45.56408 8.59421,7.16511 23.46211,22.431 30.00391,30.80708 2.4179,3.09586 4.55168,5.62884 4.74173,5.62884 0.19006,0 3.39785,-1.33966 7.12842,-2.97702 z m 202.05237,142.97702 v -57 h 53.5 53.5 v 57 57 h -53.5 -53.5 z m 93,20.5 v -7.5 h -18.5 -18.5 v 7.5 7.5 h 18.5 18.5 z m 0,-28 v -7.5 h -18.5 -18.5 v 7.5 7.5 h 18.5 18.5 z m 0,-27.5 v -8 h -19 -19 v 8 8 h 19 19 z m 103.25003,91.25053 -31.25,-0.27902 v -17.98576 -17.98575 h 54.5 54.5 v 18.5 18.5 l -23.25,-0.23523 c -12.7875,-0.12937 -37.3125,-0.36078 -54.5,-0.51424 z m 91.75,-17.75053 v -18.5 h 55.50004 55.5 v 18.5 18.5 h -55.5 -55.50004 z m -73.25,-31.24979 -49.75,-0.26888 v -17.99067 -17.99066 h 54.5 54.5 v 18.5 18.5 l -4.75,-0.24045 c -2.6125,-0.13225 -27.1375,-0.36145 -54.5,-0.50934 z m 74,0.18349 c -0.4125,-0.42187 -0.75,-8.79203 -0.75,-18.60037 v -17.83333 h 54.84534 54.8453 l 0.6849,17.54669 c 0.3766,9.65068 0.4891,17.86318 0.2499,18.25 -0.5972,0.96568 -108.93984,1.5938 -109.87544,0.63701 z m -262.75003,-99.4337 v -26 h 14.39301 c 12.20205,0 14.48541,0.24079 15,1.58179 0.33385,0.86998 0.60699,12.56998 0.60699,26 v 24.41821 h -15 -15 z"
       id="path1" />
  </g>
</svg>
