<?xml version="1.0" encoding="UTF-8" standalone="no"?>
<!-- Created with Inkscape (http://www.inkscape.org/) -->

<svg
   version="1.1"
   id="svg1"
   width="1408"
   height="768"
   viewBox="0 0 1408 768"
   sodipodi:docname="illustration_biosalissures_2.svg"
   inkscape:version="1.3.2 (091e20e, 2023-11-25)"
   xmlns:inkscape="http://www.inkscape.org/namespaces/inkscape"
   xmlns:sodipodi="http://sodipodi.sourceforge.net/DTD/sodipodi-0.dtd"
   xmlns="http://www.w3.org/2000/svg"
   xmlns:svg="http://www.w3.org/2000/svg">
  <defs
     id="defs1" />
  <sodipodi:namedview
     id="namedview1"
     pagecolor="#ffffff"
     bordercolor="#000000"
     borderopacity="0.25"
     inkscape:showpageshadow="2"
     inkscape:pageopacity="0.0"
     inkscape:pagecheckerboard="0"
     inkscape:deskcolor="#d1d1d1"
     inkscape:zoom="0.19247159"
     inkscape:cx="-283.15867"
     inkscape:cy="-290.95203"
     inkscape:window-width="1472"
     inkscape:window-height="755"
     inkscape:window-x="0"
     inkscape:window-y="38"
     inkscape:window-maximized="0"
     inkscape:current-layer="g1" />
  <g
     inkscape:groupmode="layer"
     inkscape:label="Image"
     id="g1">
    <path
       style="fill:#000000"
       d="m 670.96448,266.68168 c 0.34549,-2.52061 0.85574,-4.95116 1.1339,-5.40122 0.27815,-0.45007 5.65003,-1.13973 11.9375,-1.53258 l 11.43177,-0.71429 0.32026,-14.80399 c 0.17614,-8.14219 0.65776,-15.14021 1.07026,-15.55115 1.72838,-1.72186 2.26697,1.53096 2.56979,15.52042 l 0.31979,14.77326 9.61201,0.63139 c 6.04484,0.39707 9.90998,1.1008 10.4149,1.89624 0.44159,0.69567 0.80978,3.17735 0.8182,5.51485 l 0.0153,4.25 h -25.13591 -25.13593 z"
       id="path36" />
    <path
       style="fill:#000000"
       d="m 653.60817,286.26461 v -7 h 33.5 33.5 v 7 7 h -33.5 -33.5 z"
       id="path35" />
    <path
       style="fill:#000000"
       d="m 888.27484,339.59794 c -0.36667,-0.36666 -0.66667,-6.66666 -0.66667,-14 v -13.33333 h 38 38.00005 v 13.375 13.375 l -3.125,0.625 c -4.207,0.8414 -71.36407,0.80264 -72.20838,-0.0417 z"
       id="path34" />
    <path
       style="fill:#000000"
       d="m 802.26087,329.62107 c -0.35898,-5.86717 -0.6527,-12.17258 -0.6527,-14.01202 v -3.34444 h 38.02822 38.02822 l -0.27822,13.75 -0.27822,13.75 -37.0973,0.26202 -37.0973,0.26202 z"
       id="path33" />
    <path
       style="fill:#000000"
       d="m 888.60817,366.76461 v -17.5 h 50.50005 50.5 v 17.5 17.5 h -50.5 -50.50005 z"
       id="path32" />
    <path
       style="fill:#000000"
       d="m 775.60817,366.76461 v -17.5 h 51 51 v 17.5 17.5 h -51 -51 z"
       id="path31" />
    <path
       style="fill:#000000"
       d="m 719.5408,330.84579 c 0.67831,-0.81732 1.04818,-3.67891 0.87244,-6.74988 l -0.30507,-5.33105 -4.27765,-0.89804 c -2.87629,-0.60384 -5.0876,-0.529 -6.75,0.22844 -2.17894,0.99279 -2.47235,1.758 -2.47235,6.44791 0,2.92679 0.54,5.86144 1.2,6.52144 1.69174,1.69174 10.27993,1.53157 11.73263,-0.21882 z"
       id="path30" />
    <path
       style="fill:#000000"
       d="m 693.60817,325.26461 v -7 h -6.5 -6.5 v 6.33333 c 0,3.48334 0.3,6.63334 0.66667,7 0.36666,0.36667 3.29166,0.66667 6.5,0.66667 h 5.83333 z"
       id="path29" />
    <path
       style="fill:#000000"
       d="m 666.82156,329.95358 c 1.01367,-1.59424 0.96419,-8.86071 -0.0715,-10.49357 -0.56715,-0.8942 -2.68573,-1.20877 -6.73469,-1 l -5.9072,0.3046 v 6 6 l 3.5,0.56084 c 4.45774,0.71431 8.24554,0.15031 9.21339,-1.37187 z"
       id="path28" />
    <path
       style="fill:#000000"
       d="m 720.10817,352.76461 v -6 h -6.5 -6.5 l -0.29893,6.29681 -0.29893,6.2968 6.79893,-0.2968 6.79893,-0.29681 z"
       id="path27" />
    <path
       style="fill:#000000"
       d="m 693.60817,352.76461 v -6.5 h -6.5 -6.5 v 6.5 6.5 h 6.5 6.5 z"
       id="path26" />
    <path
       style="fill:#000000"
       d="m 665.09314,359.27032 c 2.45733,-0.93427 2.59707,-1.3417 2.3151,-6.75 l -0.30007,-5.75571 h -6.5 -6.5 v 5.95492 c 0,5.4998 0.19107,6.00806 2.5,6.65032 3.69781,1.02858 5.57575,1.00656 8.48497,-0.0995 z"
       id="path25" />
    <path
       style="fill:#000000"
       d="m 634.60817,342.76461 v -41.5 h 50.5 50.5 v 41.5 41.5 h -50.5 -50.5 z"
       id="path24" />
    <path
       style="fill:#000000"
       d="m 500.43832,441.35664 c -0.33385,-0.86998 -0.60699,-2.72886 -0.60699,-4.13084 0,-2.36679 0.25663,-2.50741 3.58923,-1.9666 3.70356,0.601 6.41077,2.22796 6.41077,3.8527 0,0.90305 -6.00575,3.82653 -7.86089,3.82653 -0.50882,0 -1.19828,-0.7118 -1.53212,-1.58179 z"
       id="path23" />
    <path
       style="fill:#000000"
       d="m 552.14443,404.48864 c -0.76698,-3.0559 0.35635,-19.3018 1.33202,-19.26393 0.64552,0.0251 6.13172,15.71787 6.13172,17.53928 0,0.88929 -5.0338,4.4362 -6.29588,4.4362 -0.26802,0 -0.79355,-1.2202 -1.16786,-2.71155 z"
       id="path22" />
    <path
       style="fill:#000000"
       d="m 493.41626,443.68843 c -0.24925,-1.2375 -0.67631,-3.6 -0.94902,-5.25 -0.27272,-1.65 -0.80051,-3.7875 -1.17287,-4.75 -0.79742,-2.06124 0.45062,-2.26484 2.9008,-0.47322 2.17335,1.58919 3.60543,7.574 2.51663,10.5173 -1.05386,2.84887 -2.71735,2.82662 -3.29554,-0.0441 z"
       id="path21" />
    <path
       style="fill:#000000"
       d="m 483.43611,449.3509 c -0.33263,-0.86683 -0.61466,-3.45174 -0.62674,-5.74426 -0.0121,-2.29251 -0.92008,-6.14771 -2.01777,-8.56711 -2.294,-5.05613 -1.98317,-5.84692 1.77831,-4.52408 6.0919,2.14241 9.78483,13.94593 5.51142,17.61589 -3.00602,2.58154 -4.02038,2.84785 -4.64522,1.21956 z"
       id="path20" />
    <path
       style="fill:#000000"
       d="m 552.60817,415.60019 c 0,-3.52499 6.13061,-9.6624 9.21286,-9.22308 3.89919,0.55576 3.08895,3.22391 -2.31353,7.61864 -2.84272,2.31244 -5.55799,4.20444 -6.03395,4.20444 -0.47596,0 -0.86538,-1.17 -0.86538,-2.6 z"
       id="path19" />
    <path
       style="fill:#000000"
       d="m 469.408,453.68843 c -0.25379,-1.2375 -0.74994,-4.02907 -1.10254,-6.20349 -0.76563,-4.7214 -3.39331,-10.10858 -7.05076,-14.45521 -1.46973,-1.74668 -2.3797,-3.4683 -2.02216,-3.82584 0.35754,-0.35754 2.89031,-0.65008 5.62837,-0.65008 8.82349,0 14.17563,6.16836 14.3625,16.55284 0.0971,5.39585 -0.17329,6.23919 -2.69784,8.41434 -3.56682,3.07316 -6.50747,3.14234 -7.11757,0.16744 z"
       id="path18" />
    <path
       style="fill:#000000"
       d="m 452.52727,458.53174 c -2.09223,-0.76714 -4.79223,-2.35337 -6,-3.52495 -1.20777,-1.17158 -3.90643,-3.53305 -5.99702,-5.2477 -6.53573,-5.36043 -8.55619,-11.96339 -4.80772,-15.71186 2.42292,-2.42292 10.66995,-3.57333 15.77051,-2.19989 7.00372,1.8859 12.19792,9.45148 13.06666,19.03216 0.38009,4.19167 0.13782,5.92509 -0.95484,6.83192 -2.37587,1.9718 -7.0027,2.31442 -11.07759,0.82032 z"
       id="path17" />
    <path
       style="fill:#000000"
       d="m 560.18613,443.83849 c -8.26987,-7.79949 -8.668,-18.60947 -0.95112,-25.82468 5.41737,-5.0652 9.86245,-5.54376 13.27705,-1.42943 1.02363,1.23341 0.55884,2.35434 -2.66994,6.43905 -4.65001,5.88271 -6.66704,12.31766 -6.00867,19.1695 0.26462,2.75399 0.35423,5.00726 0.19913,5.00726 -0.1551,0 -1.88601,-1.51277 -3.84645,-3.3617 z"
       id="path16" />
    <path
       style="fill:#000000"
       d="m 579.61234,455.35821 c -5.42249,-5.42249 -5.84772,-13.35588 -1.07513,-20.05837 2.45424,-3.44665 2.55329,-4.09965 0.62185,-4.09965 -0.79701,0 -2.70951,1.654 -4.25,3.67556 -2.42694,3.18484 -2.80041,4.5732 -2.79728,10.39882 l 0.004,6.72325 -1.76319,-2.64882 c -4.48348,-6.73544 -4.27077,-14.16154 0.64593,-22.55126 2.88969,-4.93087 5.15121,-6.09381 10.05969,-5.17297 6.82344,1.28008 9.2321,6.95035 6.89858,16.2401 -1.5393,6.12801 -1.53453,6.90299 0.0739,12.0054 1.34561,4.26876 1.46,5.76707 0.5262,6.89222 -1.90749,2.29839 -5.8624,1.67744 -8.94412,-1.40428 z"
       id="path15" />
    <path
       style="fill:#000000;stroke-width:1.34635"
       d="m 531.0946,509.13922 c -1.52209,-0.89937 -7.42921,-6.54941 -13.12694,-12.55565 -7.65669,-8.07127 -10.35949,-11.86811 -10.35949,-14.55275 0,-4.87414 1.24998,-3.86331 10.90211,8.81625 4.51523,5.93145 8.56636,10.4276 9.00251,9.99143 0.43615,-0.43615 -2.99474,-6.25887 -7.62422,-12.93937 -8.27794,-11.94538 -9.64807,-16.30921 -5.37878,-17.13141 1.52696,-0.29407 3.06486,1.86787 5.25655,7.38949 4.23815,10.67739 9.43258,20.99516 10.18904,20.2387 0.34351,-0.34349 -1.5148,-6.5346 -4.12957,-13.758 -5.52586,-15.26544 -5.98276,-19.54401 -2.08706,-19.54401 2.97511,0 3.01086,0.11013 6.09526,18.78341 1.15602,6.99866 2.38378,13.00675 2.72836,13.35133 1.56009,1.5601 1.76248,-1.24736 0.67026,-9.29785 -0.64921,-4.78511 -1.37902,-12.63827 -1.62183,-17.45148 l -0.44146,-8.75129 3.91046,-0.44609 3.91047,-0.44608 -0.87824,10.54372 c -0.48303,5.79905 -1.27698,14.12157 -1.7643,18.49447 -1.546,13.87245 1.67478,7.35791 4.23759,-8.5712 2.48818,-15.4652 4.58129,-19.62474 8.09828,-16.09329 1.98294,1.9911 0.5533,7.23654 -7.21564,26.47481 -3.42559,8.4828 -1.18852,9.59541 2.41063,1.19892 6.22159,-14.51436 9.84631,-21.05762 11.66512,-21.05762 3.8639,0 3.60269,4.23988 -0.62858,10.2034 -2.32303,3.27406 -6.15142,8.67001 -8.50754,11.99102 -7.05973,9.95086 -3.46625,8.19746 5.44064,-2.65469 8.7156,-10.61908 10.96038,-12.0746 10.96038,-7.10666 0,4.14197 -24.14272,26.82026 -28.27339,26.55841 -0.37025,-0.0234 -1.91853,-0.77853 -3.44062,-1.67792 z"
       id="path12" />
    <path
       style="fill:#000000"
       d="m 531.11095,584.67778 c -2.10411,-3.5904 -3.418,-4.61389 -7.69715,-5.9959 -2.83797,-0.91656 -5.61562,-1.38485 -6.17255,-1.04064 -0.56961,0.35203 -0.8079,2.75642 -0.54467,5.49589 0.25738,2.67854 0.28701,4.87007 0.0659,4.87007 -0.89895,0 -4.26193,-8.67768 -4.28236,-11.05 -0.0524,-6.08986 -6.52096,-6.78261 -12.83859,-1.37496 l -4.17662,3.57503 1.99662,-4.65794 c 1.09811,-2.56187 1.99659,-5.07063 1.99659,-5.57504 0,-1.39017 -4.23059,-1.09978 -9.12427,0.62631 l -4.37573,1.54339 4.25,-4.33124 c 2.3375,-2.38219 4.25,-4.78844 4.25,-5.34723 0,-0.55879 -1.575,-2.54254 -3.5,-4.40832 -4.59308,-4.45179 -4.431,-5.51561 0.46016,-3.02032 2.17809,1.11117 5.15317,2.02032 6.61129,2.02032 2.51502,0 2.61701,-0.19254 1.98652,-3.75 -0.36553,-2.0625 -0.91186,-4.65 -1.21407,-5.75 -0.33868,-1.2328 0.45676,-0.6574 2.07363,1.5 3.50021,4.67034 5.4288,6 8.70264,6 2.43787,0 2.90908,-0.57533 4.29984,-5.25 2.49459,-8.38488 3.54704,-9.12299 3.56468,-2.5 0.0171,6.41203 0.31358,6.59199 7.28766,4.42315 2.69619,-0.83848 4.60039,-2.42905 6.67497,-5.57559 l 2.90262,-4.40243 -0.17497,4.80886 c -0.16249,4.46579 0.0226,4.86325 2.5948,5.57124 2.19156,0.60323 3.39191,0.23888 5.75,-1.74532 3.25761,-2.74109 3.43418,-2.65409 2.04249,1.00634 -1.34089,3.52681 1.68777,6.16374 6.07222,5.28685 3.1301,-0.62602 3.15565,-0.60117 1.38912,1.35082 -1.47296,1.62761 -1.57083,2.26425 -0.53917,3.50732 0.69325,0.83532 2.4088,1.51876 3.81233,1.51876 h 2.55187 l -2.17432,2.31445 c -2.68607,2.85919 -2.69843,3.49875 -0.12063,6.24269 l 2.05368,2.18604 -2.54124,-0.48579 c -3.00906,-0.57522 -4.2601,1.57739 -2.65729,4.57226 0.99336,1.85611 0.8773,1.9159 -1.77553,0.91456 -4.59815,-1.7356 -6.47365,-0.41204 -5.69121,4.01635 l 0.66071,3.73944 -2.32146,-2.83051 c -1.88522,-2.2986 -2.97541,-2.7684 -5.8014,-2.5 -3.37572,0.32061 -3.47994,0.45783 -3.47994,4.5818 0,2.33821 -0.0697,4.25071 -0.15498,4.25 -0.0852,-7.1e-4 -1.29672,-1.94953 -2.69219,-4.33071 z"
       id="path9" />
    <path
       style="fill:#000000"
       d="m 683.31921,509.7377 c -10.04675,-2.50679 -10.08503,-2.55903 -6.65492,-9.07978 2.31097,-4.39322 2.9515,-6.91827 2.97932,-11.74486 0.0198,-3.43232 0.66676,-7.25284 1.46456,-8.64845 2.54025,-4.4437 1.8558,-7.79408 -2.5,-12.23766 -2.22466,-2.2695 -4,-5.05971 -4,-6.28662 0,-2.6637 -3.58699,-7.47572 -5.57258,-7.47572 -1.80973,0 -1.77628,-2.76576 0.0726,-6 3.26476,-5.71111 0.24559,-12.60705 -5.77416,-13.18844 -3.07054,-0.29656 -3.25545,-0.55414 -3.84087,-5.35022 -0.74091,-6.0699 -2.92306,-10.55954 -6.49985,-13.37304 -7.49141,-5.89274 -14.17916,1.17746 -14.34157,15.1617 -0.0435,3.74868 -0.0451,3.75 -4.36924,3.75 -5.25843,0 -8.22722,2.68525 -9.43417,8.53312 -1.13998,5.52342 -4.7024,5.93897 -10.24464,1.19503 -2.18919,-1.87387 -5.80446,-3.95355 -8.03393,-4.62152 -2.46594,-0.73881 -4.4277,-2.07461 -5.00876,-3.41056 -1.11373,-2.56056 -6.95283,-37.73484 -6.95283,-41.88317 v -2.8129 l 200.25,-0.0259 200.25005,-0.0259 17.99998,-16.32719 18,-16.32719 68.2793,-0.51604 68.2792,-0.51604 -1.5743,2.40282 c -0.866,1.32155 -8.2068,11.50017 -16.3131,22.61914 -39.2014,53.77069 -55.8028,79.09398 -68.7406,104.85472 -2.4478,4.87389 -4.6455,8.86161 -4.8836,8.86161 -0.2382,0 -4.6212,-1.44427 -9.74,-3.20949 -8.1155,-2.79865 -10.587,-3.20423 -19.3069,-3.16834 -11.19,0.0461 -15.3774,1.13234 -47.99998,12.45201 -17.4643,6.05989 -18.3126,6.24847 -28.5,6.3358 l -10.5,0.09 -17,-8.18294 c -9.35,-4.50062 -18.80005,-8.6194 -21.00005,-9.15286 -14.56022,-3.53059 -24.85653,-2.20093 -50,6.457 -32.60736,11.22806 -33.89008,11.55507 -43.68976,11.13823 -8.53681,-0.36312 -8.95927,-0.50431 -24,-8.02102 -20.03005,-10.01015 -23.99158,-11.08916 -38.72048,-10.54642 -11.14979,0.41085 -12.27308,0.66576 -29.58976,6.71472 -36.40563,12.71701 -42.67344,14.09032 -52.78896,11.56638 z"
       id="path8" />
    <path
       style="fill:#000000"
       d="m 473.87524,526.94 c 0.93094,-4.06822 0.76284,-5.09398 -1.63958,-10.00434 -2.83115,-5.78667 -5.98561,-8.70282 -14.12749,-13.06023 l -5,-2.67592 10.5,0.38373 c 6.60571,0.24141 11.89474,0.97797 14.26058,1.98595 5.18284,2.20817 14.22564,11.00264 16.81653,16.35472 1.99077,4.11238 2.02857,4.56645 0.51891,6.23459 -2.03756,2.25149 -7.17646,3.76672 -15.73113,4.63841 l -6.63511,0.67609 z"
       id="path7" />
    <path
       style="fill:#000000"
       d="m 452.37395,530.34664 c -2.80382,-2.50521 -3.26578,-3.57773 -3.26578,-7.58203 0,-4.0043 0.46196,-5.07682 3.26578,-7.58203 5.68544,-5.07994 12.93503,-3.62222 15.64291,3.14542 2.13262,5.32995 1.35121,9.11941 -2.55893,12.40958 -4.17354,3.51179 -8.87323,3.37137 -13.08398,-0.39094 z"
       id="path6" />
    <path
       style="fill:#000000"
       d="m 633.59253,490.85727 c -4.09868,-6.4898 -6.13918,-8.7486 -3.92296,-4.34266 1.8096,3.59758 7.34374,11.67819 7.73205,11.28988 0.19501,-0.195 -1.51908,-3.32125 -3.80909,-6.94722 z"
       id="path5" />
    <path
       style="fill:#000000"
       d="m 540.10817,537.27688 c 4.82899,-3.41787 27.10445,-14.4141 41.34165,-20.40821 16.72619,-7.04202 31.48155,-12.0384 41.62938,-14.09631 4.38407,-0.88906 8.12242,-1.76786 8.30745,-1.95289 0.18503,-0.18503 -1.29852,-2.89223 -3.29677,-6.016 -4.18387,-6.54044 -9.6396,-17.71431 -8.97409,-18.37981 0.24845,-0.24845 2.26087,0.74551 4.47205,2.2088 4.923,3.25789 4.95727,2.92193 1.01005,-9.90125 -1.65565,-5.37865 -2.79153,-9.99812 -2.52417,-10.26549 0.79677,-0.79676 3.55517,1.93828 5.23918,5.1948 0.86507,1.67286 2.82699,6.91079 4.35982,11.63984 2.6042,8.03441 6.42234,15.96425 7.68663,15.96425 0.3045,0 0.26162,-5.11274 -0.0953,-11.36165 -0.46041,-8.06113 -1.38999,-13.63189 -3.19998,-19.17665 -1.62179,-4.96822 -2.44268,-9.48093 -2.2535,-12.38834 l 0.2976,-4.57336 3.26734,6.89933 c 1.79704,3.79463 3.46911,6.69756 3.71572,6.45095 0.92724,-0.92725 6.51694,-25.4367 6.51694,-28.57519 0,-1.8013 0.44143,-3.27509 0.98095,-3.27509 3.19449,0 3.30145,17.45726 0.16848,27.5 -3.25872,10.44585 -4.71655,26.69296 -3.29628,36.73602 0.6357,4.49512 1.49129,8.50842 1.90133,8.91846 0.41004,0.41004 0.74552,-8.11948 0.74552,-18.95448 0,-22.51081 0.31618,-23.72206 8.1624,-31.2696 5.27171,-5.07105 5.26937,-4.43258 -0.0278,7.5696 -6.04395,13.69413 -8.26156,31.88038 -4.57376,37.50861 0.83911,1.28062 1.19273,1.20875 2.50224,-0.50861 0.83877,-1.1 2.21981,-4.475 3.06898,-7.5 4.18921,-14.92331 5.42909,-18.70131 6.71424,-20.45886 1.24264,-1.69941 1.34804,-1.3134 0.96254,3.52524 -1.38852,17.42824 -2.31558,23.35791 -3.77995,24.17741 -0.84087,0.47058 -1.52885,1.35325 -1.52885,1.96151 0,0.60825 -1.1479,2.61089 -2.55089,4.45031 -3.72235,4.88024 -0.5968,4.35715 3.93453,-0.65849 1.989,-2.20159 3.61636,-4.14394 3.61636,-4.31634 0,-2.30903 2.51842,-12.78261 3.55618,-14.78942 1.59428,-3.08299 5.18308,-5.07329 3.88163,-2.1527 -0.43169,0.96874 -1.06582,5.70745 -1.40919,10.53047 l -0.62432,8.76913 -6.31559,6.37223 -6.31559,6.37224 4.36344,2.55035 c 2.39989,1.40269 7.51344,4.03908 11.36344,5.85864 6.7829,3.20567 7.38769,3.30695 19.5,3.26525 12.41785,-0.0427 12.58543,-0.0746 25.5,-4.84988 49.10545,-18.15711 52.96714,-18.33483 82.97317,-3.81859 l 17.97316,8.69501 10.52684,0.31116 c 10.2797,0.30385 10.82029,0.20662 23.02683,-4.14147 34.33772,-12.23143 39.24607,-13.77513 47.12945,-14.82239 13.36592,-1.7756 20.34674,-0.1498 37.61716,8.76084 18.3144,9.4493 22.7851,10.74871 35.1405,10.21368 8.3065,-0.35971 11.4475,-1.06407 23.1129,-5.18291 31.68738,-11.1883 35.86818,-12.4991 42.99998,-13.48184 8.9369,-1.23148 19.2019,-0.15942 27.2285,2.84372 8.4295,3.15387 25.6766,15.04939 35.5012,24.48547 l 8.7703,8.42357 -4,-0.52464 c -7.2921,-0.95645 -17.8181,-4.45852 -33.5,-11.14569 -14.5565,-6.20728 -16.0516,-6.63505 -24.5624,-7.02739 -10.3513,-0.47719 -12.4927,0.0366 -40.4376,9.70241 -20.06228,6.93929 -28.81478,8.58121 -41.49998,7.78517 -11.213,-0.70365 -16.614,-2.32236 -33,-9.89029 -22.3782,-10.33547 -28.7248,-10.5913 -52.94736,-2.13432 -32.13652,11.22004 -33.88993,11.65198 -47.55265,11.7144 -15.72065,0.0718 -21.064,-1.3015 -39.5,-10.15204 l -14,-6.72095 -11.5,0.0232 -11.5,0.0233 -19.5,6.78253 c -24.0125,8.35208 -33.33359,10.65994 -43,10.64659 -13.14938,-0.0182 -19.99011,-2.00426 -42.50695,-12.34124 -17.48641,-8.02763 -21.99395,-8.03749 -48.02881,-0.10511 -24.74257,7.53864 -46.23596,12.57637 -59.46424,13.93751 l -6.5,0.66883 z"
       id="path4" />
    <path
       style="fill:#000000"
       d="m 474.10817,540.29882 c -1.1,-0.46146 -3.33475,-1.35878 -4.96612,-1.99403 -4.91124,-1.91245 -1.16722,-3.00788 10.33856,-3.02487 9.30166,-0.0137 10.23828,0.14635 9.07284,1.55063 -3.17211,3.82215 -9.80534,5.41477 -14.44528,3.46827 z"
       id="path2" />
    <path
       style="fill:#000000"
       d="m 452.96114,543.20378 c -8.87341,-2.8127 -15.27748,-8.90199 -20.27432,-19.27776 -5.3403,-11.08897 -5.69615,-13.13482 -2.79005,-16.04092 1.38897,-1.38896 4.1376,-2.60682 6.77435,-3.00156 4.45492,-0.66693 13.67878,0.57753 16.66429,2.2483 1.38464,0.77489 1.31736,0.98384 -0.50276,1.56152 -3.21913,1.02172 -8.04776,7.11231 -8.79454,11.09301 -0.76715,4.08928 1.54812,11.24342 4.50455,13.91895 1.02444,0.92711 5.17076,2.96175 9.21406,4.52144 12.29142,4.74137 13.85145,5.44607 13.85145,6.25709 0,1.50955 -12.56831,0.64677 -18.64703,-1.28007 z"
       id="path1" />
  </g>
</svg>
